# xmcd CD Database Entry
#
# Track frame offsets:
# 150
# 19313
# 44470
# 66434
# 93392
# 107434
# 119071
# 137734
# 154940
# 173563
# 197682
# 216632
# 233289
# 257751
#
# Disc length: 3800 seconds
#
# Revision: 3
# Processed by: cddbd v1.4PL0 Copyright (c) Steve Scherf et al.
# Submitted via: tcd 2.0b
#
DISCID=c80ed60e
DTITLE=Various Artist - Various Artists - Lucerne Blues Festival 20
DTITLE=01 Part II Promo
DYEAR=1900
DGENRE=
TTITLE0=Darrell Nulisch - Once In A Livetime Love
TTITLE1=Little Hatch - Fannie Mae
TTITLE2=Roy Gaines - You Can't Make Nobody Love You
TTITLE3=Eddie Tigner - After Hours
TTITLE4=Fred James and Mary Ann Brandon - Lovey Dovey
TTITLE5=Lil' Ed and The Blues Imperials - Standing On The Corner
TTITLE6=James Nixon - Sweet Thing
TTITLE7=Big George Jackson Blues Band - Tell Me
TTITLE8=Eddie C. Campbell - Lost Soul
TTITLE9=Lazy Lester - The Sun Is Shining
TTITLE10="Cool" John Ferguson - Log Cabin Woman
TTITLE11=Otis Clay - That's How It Is
TTITLE12=Jerry "Boogie" McCain - My Deal At The Crossroads
TTITLE13=Darrell Nulisch and Benjie Porecki - Desperado
EXTD=
EXTT0=
EXTT1=
EXTT2=
EXTT3=
EXTT4=
EXTT5=
EXTT6=
EXTT7=
EXTT8=
EXTT9=
EXTT10=
EXTT11=
EXTT12=
EXTT13=
PLAYORDER=
